<svg xmlns="http://www.w3.org/2000/svg" version="1.1" xmlnsXlink="http://www.w3.org/1999/xlink" xmlnsSvgjs="http://svgjs.dev/svgjs" width="1000" height="126" viewBox="0 0 1000 126"><g transform="matrix(1,0,0,1,-0.6060606060606233,0.23126714743791865)"><svg viewBox="0 0 396 50" data-background-color="#ffffff" preserveAspectRatio="xMidYMid meet" height="126" width="1000" xmlns="http://www.w3.org/2000/svg" xmlnsXlink="http://www.w3.org/1999/xlink"><g id="tight-bounds" transform="matrix(1,0,0,1,0.2400000000000091,-0.0917726775547294)"><svg viewBox="0 0 395.52 50.18354535510947" height="50.18354535510947" width="395.52"><g><svg viewBox="0 0 503.9506855740017 63.941221900893574" height="50.18354535510947" width="395.52"><g><rect width="4.172420678989568" height="46.498500731112905" x="406.4425672224857" y="8.721360584890334" fill="#ffffff" opacity="1" stroke-width="0" stroke="transparent" fill-opacity="1" class="rect-r$-0" data-fill-palette-color="primary" rx="1%" id="r$-0" data-palette-color="#ffffff"></rect></g><g transform="matrix(1,0,0,1,0,8.837028497156783)"><svg viewBox="0 0 395.5199999999999 46.26716490658001" height="46.26716490658001" width="395.5199999999999"><g id="textblocktransform"><svg viewBox="0 0 395.5199999999999 46.26716490658001" height="46.26716490658001" width="395.5199999999999" id="textblock"><g><svg viewBox="0 0 395.5199999999999 46.26716490658001" height="46.26716490658001" width="395.5199999999999"><g transform="matrix(1,0,0,1,0,0)"><svg width="395.5199999999999" viewBox="1.55 -35.5 305.33 36" height="46.26716490658001" data-palette-color="#ffffff"><g class="wordmark-text-0" data-fill-palette-color="primary" id="text-0"><path d="M15.2 0.5L15.2 0.5Q12.5 0.5 10.08-0.18 7.65-0.85 5.75-2.25 3.85-3.65 2.73-5.7 1.6-7.75 1.55-10.55L1.55-10.55Q1.55-11 1.85-11.33 2.15-11.65 2.6-11.65L2.6-11.65 7.35-11.65Q8-11.65 8.33-11.3 8.65-10.95 8.85-10.35L8.85-10.35Q9.1-8.55 10-7.43 10.9-6.3 12.28-5.78 13.65-5.25 15.35-5.25L15.35-5.25Q18.5-5.25 20.18-7.3 21.85-9.35 21.85-13L21.85-13 21.85-29.1 4.9-29.1Q4.35-29.1 4.03-29.45 3.7-29.8 3.7-30.3L3.7-30.3 3.7-33.8Q3.7-34.3 4.03-34.65 4.35-35 4.9-35L4.9-35 27.75-35Q28.3-35 28.65-34.65 29-34.3 29-33.75L29-33.75 29-12.8Q29-8.65 27.28-5.65 25.55-2.65 22.48-1.07 19.4 0.5 15.2 0.5ZM49.95 0.5L49.95 0.5Q45.5 0.5 42.3-0.98 39.1-2.45 37.3-5.53 35.5-8.6 35.35-13.2L35.35-13.2Q35.3-15.35 35.3-17.45 35.3-19.55 35.35-21.75L35.35-21.75Q35.5-26.3 37.35-29.35 39.2-32.4 42.42-33.95 45.65-35.5 49.95-35.5L49.95-35.5Q54.25-35.5 57.5-33.95 60.75-32.4 62.6-29.35 64.45-26.3 64.6-21.75L64.6-21.75Q64.7-19.55 64.7-17.45 64.7-15.35 64.6-13.2L64.6-13.2Q64.45-8.6 62.65-5.53 60.85-2.45 57.62-0.98 54.4 0.5 49.95 0.5ZM49.95-5.25L49.95-5.25Q53.2-5.25 55.25-7.18 57.3-9.1 57.45-13.45L57.45-13.45Q57.55-15.65 57.55-17.53 57.55-19.4 57.45-21.55L57.45-21.55Q57.35-24.45 56.37-26.28 55.4-28.1 53.75-28.93 52.1-29.75 49.95-29.75L49.95-29.75Q47.85-29.75 46.2-28.93 44.55-28.1 43.57-26.28 42.6-24.45 42.5-21.55L42.5-21.55Q42.45-19.4 42.45-17.53 42.45-15.65 42.5-13.45L42.5-13.45Q42.65-9.1 44.7-7.18 46.75-5.25 49.95-5.25ZM87.34 0L72.44 0Q71.94 0 71.59-0.35 71.25-0.7 71.25-1.2L71.25-1.2 71.25-33.75Q71.25-34.3 71.59-34.65 71.94-35 72.44-35L72.44-35 86.94-35Q91-35 93.55-33.77 96.09-32.55 97.32-30.4 98.55-28.25 98.55-25.4L98.55-25.4Q98.55-23.5 97.87-22.08 97.19-20.65 96.22-19.75 95.25-18.85 94.3-18.35L94.3-18.35Q96.25-17.45 97.75-15.35 99.25-13.25 99.25-10.35L99.25-10.35Q99.25-7.35 97.89-5 96.55-2.65 93.89-1.33 91.25 0 87.34 0L87.34 0ZM78.19-15.45L78.19-5.3 86.55-5.3Q89.25-5.3 90.64-6.78 92.05-8.25 92.05-10.35L92.05-10.35Q92.05-12.55 90.62-14 89.19-15.45 86.55-15.45L86.55-15.45 78.19-15.45ZM78.19-29.75L78.19-20.65 86.05-20.65Q88.69-20.65 90.02-21.93 91.34-23.2 91.34-25.25L91.34-25.25Q91.34-27.35 90.02-28.55 88.69-29.75 86.05-29.75L86.05-29.75 78.19-29.75Z" fill="#ffffff" data-fill-palette-color="primary"></path><path d="M128.1 0L123.5 0Q123 0 122.65-0.35 122.3-0.7 122.3-1.2L122.3-1.2 122.3-28.85 113.05-28.85Q112.55-28.85 112.2-29.2 111.85-29.55 111.85-30.05L111.85-30.05 111.85-33.75Q111.85-34.3 112.2-34.65 112.55-35 113.05-35L113.05-35 138.55-35Q139.1-35 139.45-34.65 139.8-34.3 139.8-33.75L139.8-33.75 139.8-30.05Q139.8-29.55 139.45-29.2 139.1-28.85 138.55-28.85L138.55-28.85 129.35-28.85 129.35-1.2Q129.35-0.7 129-0.35 128.65 0 128.1 0L128.1 0ZM150.6 0L146.05 0Q145.55 0 145.2-0.35 144.85-0.7 144.85-1.2L144.85-1.2 144.85-33.75Q144.85-34.3 145.2-34.65 145.55-35 146.05-35L146.05-35 159-35Q165.05-35 168.55-32.2 172.05-29.4 172.05-24.05L172.05-24.05Q172.05-20.35 170.22-17.9 168.4-15.45 165.35-14.35L165.35-14.35 172.65-1.6Q172.8-1.3 172.8-1.05L172.8-1.05Q172.8-0.6 172.47-0.3 172.15 0 171.75 0L171.75 0 167.2 0Q166.35 0 165.9-0.45 165.45-0.9 165.2-1.35L165.2-1.35 158.75-13.2 151.8-13.2 151.8-1.2Q151.8-0.7 151.47-0.35 151.15 0 150.6 0L150.6 0ZM151.8-29.45L151.8-18.85 158.85-18.85Q161.9-18.85 163.4-20.23 164.9-21.6 164.9-24.1L164.9-24.1Q164.9-26.6 163.42-28.03 161.95-29.45 158.85-29.45L158.85-29.45 151.8-29.45ZM180.69 0L176.34 0Q175.94 0 175.62-0.3 175.29-0.6 175.29-1.05L175.29-1.05Q175.29-1.25 175.39-1.5L175.39-1.5 187.44-33.75Q187.59-34.25 188.02-34.63 188.44-35 189.19-35L189.19-35 194.64-35Q195.39-35 195.79-34.63 196.19-34.25 196.39-33.75L196.39-33.75 208.44-1.5Q208.49-1.25 208.49-1.05L208.49-1.05Q208.49-0.6 208.19-0.3 207.89 0 207.49 0L207.49 0 203.14 0Q202.44 0 202.12-0.33 201.79-0.65 201.69-0.95L201.69-0.95 199.34-7.05 184.49-7.05 182.14-0.95Q182.04-0.65 181.72-0.33 181.39 0 180.69 0L180.69 0ZM191.89-28.25L186.24-12.8 197.59-12.8 191.89-28.25ZM226.64 0.5L226.64 0.5Q221.99 0.5 218.77-1.13 215.54-2.75 213.84-5.78 212.14-8.8 211.94-13.05L211.94-13.05Q211.89-15.1 211.89-17.45 211.89-19.8 211.94-21.95L211.94-21.95Q212.14-26.15 213.87-29.2 215.59-32.25 218.82-33.88 222.04-35.5 226.64-35.5L226.64-35.5Q230.04-35.5 232.74-34.6 235.44-33.7 237.34-32.13 239.24-30.55 240.29-28.45 241.34-26.35 241.39-23.9L241.39-23.9Q241.44-23.45 241.12-23.15 240.79-22.85 240.34-22.85L240.34-22.85 235.59-22.85Q235.04-22.85 234.69-23.13 234.34-23.4 234.19-24.05L234.19-24.05Q233.39-27.35 231.44-28.55 229.49-29.75 226.59-29.75L226.59-29.75Q223.24-29.75 221.24-27.88 219.24-26 219.09-21.7L219.09-21.7Q218.94-17.6 219.09-13.3L219.09-13.3Q219.24-9 221.24-7.13 223.24-5.25 226.59-5.25L226.59-5.25Q229.49-5.25 231.47-6.48 233.44-7.7 234.19-10.95L234.19-10.95Q234.34-11.65 234.69-11.9 235.04-12.15 235.59-12.15L235.59-12.15 240.34-12.15Q240.79-12.15 241.12-11.85 241.44-11.55 241.39-11.1L241.39-11.1Q241.34-8.65 240.29-6.55 239.24-4.45 237.34-2.88 235.44-1.3 232.74-0.4 230.04 0.5 226.64 0.5ZM252.94 0L248.54 0Q248.04 0 247.69-0.35 247.34-0.7 247.34-1.2L247.34-1.2 247.34-33.75Q247.34-34.3 247.69-34.65 248.04-35 248.54-35L248.54-35 252.94-35Q253.49-35 253.84-34.65 254.19-34.3 254.19-33.75L254.19-33.75 254.19-22.05 265.49-34.1Q265.69-34.35 266.16-34.68 266.64-35 267.44-35L267.44-35 272.39-35Q272.79-35 273.11-34.7 273.44-34.4 273.44-33.95L273.44-33.95Q273.44-33.6 273.24-33.35L273.24-33.35 259.49-18.25 274.19-1.7Q274.44-1.4 274.44-1.05L274.44-1.05Q274.44-0.6 274.11-0.3 273.79 0 273.39 0L273.39 0 268.24 0Q267.39 0 266.91-0.38 266.44-0.75 266.29-0.9L266.29-0.9 254.19-14.15 254.19-1.2Q254.19-0.7 253.84-0.35 253.49 0 252.94 0L252.94 0ZM284.69 0L280.13 0Q279.63 0 279.28-0.35 278.94-0.7 278.94-1.2L278.94-1.2 278.94-33.75Q278.94-34.3 279.28-34.65 279.63-35 280.13-35L280.13-35 293.09-35Q299.13-35 302.63-32.2 306.13-29.4 306.13-24.05L306.13-24.05Q306.13-20.35 304.31-17.9 302.49-15.45 299.44-14.35L299.44-14.35 306.74-1.6Q306.88-1.3 306.88-1.05L306.88-1.05Q306.88-0.6 306.56-0.3 306.24 0 305.84 0L305.84 0 301.28 0Q300.44 0 299.99-0.45 299.53-0.9 299.28-1.35L299.28-1.35 292.84-13.2 285.88-13.2 285.88-1.2Q285.88-0.7 285.56-0.35 285.23 0 284.69 0L284.69 0ZM285.88-29.45L285.88-18.85 292.94-18.85Q295.99-18.85 297.49-20.23 298.99-21.6 298.99-24.1L298.99-24.1Q298.99-26.6 297.51-28.03 296.03-29.45 292.94-29.45L292.94-29.45 285.88-29.45Z" fill="#ffffff" data-fill-palette-color="primary"></path></g></svg></g></svg></g></svg></g></svg></g><g transform="matrix(1,0,0,1,421.53755512396106,0)"><svg viewBox="0 0 82.41313045004061 63.941221900893574" height="63.941221900893574" width="82.41313045004061"><g><svg xmlns="http://www.w3.org/2000/svg" xmlns:xlink="http://www.w3.org/1999/xlink" version="1.1" x="0" y="0" viewBox="23 27.999999999999996 58 45" enable-background="new 0 0 100 100" xml:space="preserve" height="63.941221900893574" width="82.41313045004061" class="icon-icon-0" data-fill-palette-color="accent" id="icon-0"><path d="M77 37H65v-4.7c0-3-1.5-4.3-4.6-4.3H43.8c-3 0-4.8 1.4-4.8 4.3V37H26.7c-2.6 0-3.7 1.2-3.7 3.7V69c0 2.5 1.4 4 4 4h50c2.6 0 4-0.8 4-3.3v-29C81 38.2 79.6 37 77 37zM42 32.3c0-1.3 0.5-1.3 1.8-1.3h16.6c1.3 0 1.6 0.1 1.6 1.3V37H42V32.3zM78 67.9c0 1.1 0.1 2.1-1 2.1H27.8c-1.1 0-1.8-1-1.8-2.1V41.7c0-1.1 0.5-1.7 1.7-1.7H77c1.1 0 1 0.6 1 1.7V67.9z" fill="#ffffff" data-fill-palette-color="accent"></path></svg></g></svg></g></svg></g><defs></defs></svg><rect width="395.52" height="50.18354535510947" fill="none" stroke="none" visibility="hidden"></rect></g></svg></g></svg>