<?xml version="1.0" encoding="utf-8"?>
<!-- Generator: Adobe Illustrator 26.0.3, SVG Export Plug-In . SVG Version: 6.00 Build 0)  -->
<svg version="1.0" id="Layer_1" xmlns="http://www.w3.org/2000/svg" xmlns:xlink="http://www.w3.org/1999/xlink" x="0px" y="0px"
	 viewBox="0 0 344 232" style="enable-background:new 0 0 344 232;" xml:space="preserve">
<style type="text/css">
	.st0{fill:#00467F;}
	.st1{fill:#FFFFFF;}
	.st2{fill:none;}
</style>
<polygon class="st0" points="82.5,55.7 108.1,30.1 261.5,30.1 261.5,176.2 235.8,201.9 82.6,201.9 "/>
<polygon class="st1" points="132.5,130.7 128.8,130.7 128.8,128.1 132.2,128.1 132.2,126.5 128.8,126.5 128.8,124 132.4,124 
	132.4,122.5 127.2,122.5 127.2,132.2 132.5,132.2 "/>
<polygon class="st1" points="177.3,124 177.3,122.5 172.1,122.5 172.1,132.2 177.4,132.2 177.4,130.7 173.7,130.7 173.7,128.1 
	177.2,128.1 177.2,126.5 173.7,126.5 173.7,124 "/>
<polygon class="st1" points="118.6,128.2 123,128.2 123,132.2 124.5,132.2 124.5,122.5 123,122.5 123,126.6 118.6,126.6 
	118.6,122.5 117,122.5 117,132.2 118.6,132.2 "/>
<path class="st1" d="M141.8,132.3c1.1,0.1,2.2-0.3,3-1.1c0.7-0.8,1-1.8,1-2.9v-5.9h-1.6v5.7c0.1,0.7-0.1,1.4-0.5,2
	c-0.5,0.5-1.2,0.7-1.9,0.7c-0.6,0-1.3-0.3-1.7-0.7c-0.4-0.5-0.6-1.2-0.5-1.8v-5.7h-1.5v6c-0.1,1.1,0.4,2.2,1.2,2.9
	C140.1,132.1,140.9,132.4,141.8,132.3z"/>
<path class="st1" d="M156.2,132.2v-9.7h-1.5v7c-0.2-0.2-5.5-7-5.5-7H148v9.7h1.5v-6.9c0.2,0.2,5.4,6.9,5.4,6.9H156.2z"/>
<path class="st1" d="M170.2,122.5h-1.6c0,0-2.3,6.1-2.4,6.3l-2.4-6.3h-1.6l3.8,9.8h0.5L170.2,122.5z"/>
<path class="st1" d="M185.3,132.2h1.8l-0.3-0.4c-0.5-0.8-0.7-1.1-1.1-1.7s-0.6-1.1-0.9-1.5c-0.2-0.4-0.5-0.7-0.8-1
	c0.8-0.5,1.3-1.4,1.3-2.3c0-0.8-0.3-1.5-0.8-2.1c-0.6-0.5-1.4-0.8-2.2-0.7h-2.3v9.7h1.5v-4.1h0.3c0.5,0,1,0.2,2.1,2.1L185.3,132.2z
	 M183.8,125.3c0,0.4-0.1,0.7-0.3,1c-0.3,0.3-0.7,0.4-1.2,0.4h-0.6V124h0.6C183.3,124,183.8,124.4,183.8,125.3L183.8,125.3z"/>
<path class="st1" d="M191.1,124c0.7,0,1.4,0.4,1.8,0.9l0.2,0.2l0,0.1v-2l0,0l0-0.1c-0.6-0.4-1.3-0.7-2-0.7c-1.4-0.1-2.6,1-2.7,2.4
	c0,0.1,0,0.2,0,0.3c0,1.4,1,2.1,1.9,2.8l0.2,0.2l0.4,0.3c0.2,0.1,0.4,0.3,0.6,0.5c0.3,0.2,0.5,0.6,0.5,1c0,0.6-0.6,1-1.2,1
	c0,0,0,0,0,0c-0.9-0.1-1.6-0.5-2.1-1.3l-0.2-0.3v-0.1v2.4l0,0c0.7,0.6,1.6,0.9,2.5,0.9c0.7,0,1.3-0.3,1.8-0.8c0.5-0.5,0.8-1.3,0.7-2
	c0-1.3-0.8-2.4-1.9-3l-0.7-0.4c-0.2-0.1-0.4-0.3-0.6-0.4c-0.3-0.2-0.5-0.6-0.5-1C190,124.3,190.5,123.9,191.1,124z"/>
<path class="st1" d="M211,132.2h1.5v-5.1l3.3-4.7H214c0,0-2.2,3-2.2,3.1c-0.1-0.1-2.2-3.1-2.2-3.1h-1.9c0,0,3.3,4.6,3.3,4.7
	S211,132.2,211,132.2z"/>
<rect x="158.8" y="122.5" class="st1" width="1.5" height="9.7"/>
<rect x="196.2" y="122.5" class="st1" width="1.5" height="9.7"/>
<polygon class="st1" points="111.3,132.2 112.8,132.2 112.8,124 115.8,124 115.8,122.5 108.3,122.5 108.3,124 111.3,124 "/>
<polygon class="st1" points="202.6,132.2 204.2,132.2 204.2,124 207.1,124 207.1,122.5 199.7,122.5 199.7,124 202.6,124 "/>
<polygon class="st1" points="231.6,127.8 234.9,127.8 234.9,126.3 231.6,126.3 231.6,124 234.9,124 234.9,122.5 230.1,122.5 
	230.1,132.1 231.6,132.1 "/>
<path class="st1" d="M223.6,132.4c1.3,0,2.6-0.5,3.4-1.5c1.6-2,1.6-4.9,0-6.9c-1.7-1.9-4.6-2-6.5-0.3c-0.1,0.1-0.2,0.2-0.3,0.3
	c-0.8,1-1.3,2.2-1.3,3.4c0,1.3,0.4,2.5,1.3,3.4C221.1,131.8,222.3,132.4,223.6,132.4z M221.4,125c0.6-0.6,1.4-1,2.2-0.9
	c1.7,0,3.1,1.4,3.1,3.2c0,0.1,0,0.1,0,0.2c0,0.9-0.3,1.8-0.9,2.4c-1.2,1.2-3.1,1.3-4.3,0.1c0,0-0.1-0.1-0.1-0.1
	C220.2,128.5,220.2,126.4,221.4,125z"/>
<path class="st1" d="M194,139h-1.9l-6.4,16.6h2.7c0,0,1.8-4.6,1.8-4.7h5.7c0.1,0.1,1.9,4.7,1.9,4.7h2.8L194,139z M191.3,148.3
	c0-0.2,1.6-4.4,1.8-4.7c0.1,0.3,1.8,4.5,1.9,4.7H191.3z"/>
<polygon class="st1" points="183.4,153 176.9,153 176.9,139.1 174.3,139.1 174.3,155.7 183.4,155.7 "/>
<path class="st1" d="M112.8,151h5.7c0,0.1,1.9,4.7,1.9,4.7h2.7l-6.7-16.6h-1.8l-6.4,16.6h2.7C111,155.7,112.8,151,112.8,151z
	 M115.6,143.6c0.1,0.3,1.8,4.6,1.9,4.7h-3.7C113.9,148.2,115.5,143.9,115.6,143.6L115.6,143.6z"/>
<path class="st1" d="M154.6,154.4v-3.2h-0.1l-0.4,0.3c-1.4,1.1-3.1,1.7-4.9,1.7c-1.5,0.1-2.9-0.5-4-1.6c-1-1.1-1.6-2.6-1.5-4.2
	c0-1.5,0.5-3,1.5-4.2c1-1.1,2.4-1.7,3.9-1.6c1.7,0,3.4,0.6,4.8,1.6l0.3,0.2h0.1l-0.1-3.2l0,0c-1.6-0.8-3.4-1.2-5.1-1.2
	c-4.7,0-8.2,3.6-8.2,8.7c0,2,0.7,3.9,1.9,5.4c1.5,1.8,3.8,2.9,6.2,2.8C151,155.9,152.9,155.4,154.6,154.4L154.6,154.4z"/>
<path class="st1" d="M163.6,146.9c0-0.1,6.5-7.8,6.5-7.8h-3.3c0,0-5.4,6.5-5.6,6.8v-6.8h-2.6v16.6h2.6v-7.5c0.2,0.3,6.9,7.5,6.9,7.5
	h3.6L163.6,146.9z"/>
<path class="st1" d="M233.9,141.8c-1.5-1.8-3.7-2.8-6-2.7H222v16.6h5.9c2.2,0,4.3-0.9,5.8-2.5C236.4,149.9,236.5,145.2,233.9,141.8
	L233.9,141.8z M227.6,153h-3v-11.2h2.9c1.6-0.1,3.1,0.5,4.2,1.7c0.9,1.1,1.4,2.5,1.4,4C233.1,149.5,231.9,153,227.6,153z"/>
<path class="st1" d="M131.3,155.9c1.9,0.1,3.7-0.6,5-1.9c1.2-1.4,1.8-3.1,1.7-4.9v-10h-2.7v9.6c0,1.7-0.3,2.6-0.9,3.3
	c-0.8,0.8-2,1.2-3.2,1.2c-1.1,0-2.2-0.4-2.9-1.3c-0.6-0.7-0.8-1.4-0.8-3.1v-9.7H125v10.2c-0.2,3.4,2.3,6.4,5.7,6.6
	C130.9,155.9,131.1,155.9,131.3,155.9L131.3,155.9z"/>
<path class="st1" d="M215.1,151c-0.2-0.3-9.3-11.9-9.3-11.9h-2.1v16.6h2.5v-11.8c0.2,0.3,9.2,11.7,9.2,11.7h2.2v-16.6h-2.5V151z"/>
<polygon class="st1" points="113.6,174.1 109.6,169.4 108.4,169.4 108.4,176.2 109.7,176.2 109.7,171.4 113.8,176.2 114.9,176.2 
	114.9,169.4 113.6,169.4 "/>
<polygon class="st1" points="123,173.2 126,173.2 126,172.2 123,172.2 123,170.4 126.1,170.4 126.1,169.4 121.7,169.4 121.7,176.2 
	126.1,176.2 126.1,175.1 123,175.1 "/>
<polygon class="st1" points="139.7,173.6 137.9,169.4 136.8,169.4 135,173.6 133.4,169.4 132,169.4 134.8,176.2 135.2,176.2 
	137.3,171.3 139.4,176.2 139.9,176.2 142.7,169.4 141.4,169.4 "/>
<polygon class="st1" points="162.4,169.4 156.5,169.4 156.5,170.4 160.2,170.4 156.3,176.2 162.4,176.2 162.4,175.1 158.5,175.1 "/>
<polygon class="st1" points="170.1,173.2 173,173.2 173,172.2 170.1,172.2 170.1,170.4 173.1,170.4 173.1,169.4 168.8,169.4 
	168.8,176.2 173.2,176.2 173.2,175.1 170.1,175.1 "/>
<path class="st1" d="M181.9,169.4l-2.8,6.8h1.4l0.6-1.6h3l0.7,1.6h1.4l-3-6.8H181.9z M181.5,173.6l1.1-2.6l1.2,2.6H181.5z"/>
<polygon class="st1" points="193.6,169.4 192.3,169.4 192.3,176.2 196.9,176.2 196.9,175.1 193.6,175.1 "/>
<path class="st1" d="M205.2,169.4l-2.8,6.8h1.4l0.6-1.6h3l0.7,1.6h1.4l-3-6.8H205.2z M204.8,173.6l1.1-2.6l1.2,2.6H204.8z"/>
<polygon class="st1" points="220.8,174.1 216.8,169.4 215.6,169.4 215.6,176.2 216.9,176.2 216.9,171.4 220.9,176.2 222.1,176.2 
	222.1,169.4 220.8,169.4 "/>
<path class="st1" d="M233.6,169.9c-0.6-0.3-1.2-0.4-1.9-0.4h-2.8v6.8h2.8c0.7,0,1.3-0.1,1.9-0.4c0.5-0.3,1-0.7,1.3-1.2
	c0.3-0.5,0.5-1.1,0.5-1.8c0-0.6-0.2-1.2-0.5-1.7C234.6,170.6,234.1,170.2,233.6,169.9z M233.3,174.5c-0.5,0.4-1.1,0.7-1.7,0.6h-1.4
	v-4.7h1.3c0.7,0,1.3,0.2,1.8,0.6c0.4,0.5,0.7,1.1,0.6,1.8C234,173.4,233.8,174,233.3,174.5z"/>
<rect x="108.4" y="162.3" class="st1" width="127.2" height="0.7"/>
<path class="st1" d="M146.4,55.8v26c0,6.1,4.6,23.9,25.4,32.6l0.3,0.2l0.3-0.2c20.8-8.7,25.4-26.4,25.4-32.6v-26H146.4z"/>
<path class="st0" d="M151.9,72.9L151.9,72.9l-0.2-0.1c-1.2-0.7-2.5-1.1-3.9-1.1h-0.3v9.9c0,0.2,0.7,21.4,24.6,31.5
	c23.9-10,24.6-31.3,24.6-31.5v-9.9h-0.3c-1.4,0-2.7,0.4-3.9,1.1c-2.6,1.5-5.8,1.5-8.4,0c-2.4-1.4-5.4-1.4-7.8,0l0,0
	c-2.6,1.5-5.7,1.5-8.2,0l-0.1,0c-2.4-1.4-5.4-1.4-7.8,0l-0.1,0l0,0C157.6,74.3,154.5,74.4,151.9,72.9z"/>
<path class="st0" d="M154.7,60.4c0.7-0.8,1.6-1.2,2.6-1.2c3.8-0.1,5.8,2.8,5.7,5c0.1,1.5-0.9,2.9-2.3,3.3c0,0.5,0.2,0.9,0.4,1.3
	c0,0,0.1,0.1,0,0.3c-0.1,0.2-0.1,0.2-0.1,0.2c0,0.1,0,0.1,0,0.2c0,0.2,0,0.4-0.2,0.6c-0.1,0.4-0.1,0.7,0,1.1c0,0,0,0-0.1,0
	c-0.3-0.2-0.4-0.6-0.5-0.9c-0.5,0.2-1,0.7-1.2,1.2c0,0.1-0.1,0.1-0.1,0c0-0.5,0.2-1.1,0.6-1.4c-0.3-0.1-0.7,0-1,0.2c0,0-0.1,0-0.1,0
	c0.1-0.1,0.2-0.5,1.2-0.6c0,0,0.2-0.4,0.3-0.6c-0.1-0.5-0.2-0.9-0.5-1.3c-0.4,0-0.9,0.2-1.2,0.4c-0.1,0-0.1,0.1-0.1,0.2v0.2
	c0,0,0,0.2-0.3,0.3c-0.4,0.1-0.9,0.3-1.3,0.5c-0.3,0.1-0.5,0.3-0.6,0.5c-0.1,0.2-0.3,0.4-0.6,0.5c-0.1,0-0.3,0.1-0.4,0.2l-0.3,0.3
	c-0.2,0.2-0.4,0.4-0.5,0.6c0,0.1,0,0.1,0,0v-0.3c0.1-0.3,0.2-0.6,0.5-0.9c-0.1,0-0.1,0-0.1,0c-0.6,0-1.2,0-1.9,0.2c0,0-0.1,0,0-0.1
	c0.1-0.1,0.3-0.7,1.6-0.8c-0.2-0.2-0.6-0.4-0.9-0.4c-0.1,0-0.1-0.1,0-0.1c0.4-0.2,0.9-0.1,1.3,0.2c0,0,0.5-0.2,0.7-0.2
	c0.3-0.2,1-0.9,1.3-1.1v-0.3h-0.1c-0.3-0.5-0.4-1.1-0.4-1.7c-0.8-0.2-1.5-0.6-2-1.3c-0.9-0.2-1.8-0.8-2.2-1.6
	c-1.4,1.1-2.5,2.4-3.3,4c0,0,0,0-0.1,0c-0.2-0.4-0.2-0.8-0.2-1.2c0.6-1.3,1.3-2.6,2.3-3.7c-0.2-1.3,0.6-2.5,1.9-2.8
	c0.1,0,0.3,0,0.4,0C153.8,59.6,154.3,59.9,154.7,60.4L154.7,60.4z"/>
<path class="st1" d="M158.5,60.7L158.5,60.7c0.1-0.2,0.4-0.3,0.7-0.3c-0.6-0.3-1.3-0.3-1.8,0l0,0c0.1-0.2,0.3-0.4,0.5-0.5
	c-0.6,0-1.2,0.2-1.6,0.6l0,0c0.1-0.2,0.2-0.4,0.4-0.5c-1.2,0-2.1,1.5-2.1,1.5c-0.1-0.6-0.6-1.1-1.3-1.1c-0.7-0.1-2.5,1-1.8,2.3
	c-0.8,1-1.6,2.1-2.2,3.2l0,0c0.8-1.2,1.8-2.3,3-3.2c0.1,0.1,0.7,1.8,2.3,1.8c0.5,0.8,1.4,1.2,2.3,1.3c0,0.6,0.1,1.2,0.3,1.7h0.1l0,0
	c0.4-0.4,0.9-0.7,1.5-0.8c0.1-0.4,0.2-0.7,0.4-1.1c1.1-0.2,1.9-1.2,2-2.3C161.1,62,159.9,60.5,158.5,60.7z M152.1,62.3
	c-0.2,0-0.3-0.1-0.3-0.3c0-0.2,0.1-0.3,0.3-0.3c0.2,0,0.3,0.1,0.3,0.3c0,0,0,0,0,0C152.4,62.2,152.3,62.3,152.1,62.3z"/>
<path class="st0" d="M170.8,60.4c0.7-0.8,1.6-1.2,2.6-1.2c3.8-0.1,5.8,2.8,5.7,5c0.1,1.5-0.9,2.8-2.3,3.3c0,0.5,0.1,0.9,0.4,1.3
	c0.1,0,0.1,0.1,0.1,0.3c-0.1,0.2-0.1,0.2-0.1,0.2c0,0.1,0,0.1,0,0.2c0,0.2,0,0.4-0.2,0.6c-0.1,0.4-0.1,0.7,0,1.1c0,0.1,0,0.1-0.1,0
	c-0.3-0.2-0.4-0.6-0.5-0.9c-0.5,0.2-1,0.7-1.2,1.2c0,0.1-0.1,0.1-0.2,0c0-0.5,0.2-1.1,0.6-1.4c-0.3-0.1-0.7,0-1,0.2
	c0,0-0.1,0.1-0.1,0c0.1,0,0.2-0.5,1.2-0.6c0,0,0.2-0.4,0.3-0.6c0-0.5-0.2-0.9-0.5-1.3c-0.4,0-0.9,0.2-1.2,0.4
	c-0.1,0-0.1,0.1-0.1,0.2v0.2c0,0,0,0.2-0.3,0.3c-0.4,0.1-0.9,0.3-1.3,0.5c-0.3,0.1-0.5,0.3-0.6,0.5c-0.1,0.2-0.3,0.4-0.6,0.5
	c-0.1,0-0.3,0.1-0.4,0.2l-0.3,0.3c-0.2,0.2-0.4,0.4-0.5,0.6c0,0.1,0,0.1,0,0v-0.3c0.1-0.3,0.3-0.6,0.5-0.8c-0.1,0-0.1,0-0.1,0
	c-0.6,0-1.2,0-1.9,0.2c0,0-0.1,0,0,0s0.3-0.7,1.6-0.8c-0.2-0.2-0.6-0.4-0.9-0.4c-0.1,0,0,0,0,0c0.4-0.2,0.9-0.1,1.3,0.2
	c0,0,0.5-0.2,0.7-0.2c0.3-0.2,1-0.9,1.3-1.1v-0.3h-0.1c-0.3-0.5-0.4-1.1-0.4-1.7c-0.8-0.2-1.5-0.6-2-1.3c-0.9-0.2-1.8-0.8-2.2-1.6
	c-1.4,1.1-2.5,2.4-3.3,4c0,0,0,0-0.1,0c-0.2-0.4-0.3-0.8-0.2-1.2c0.6-1.3,1.3-2.6,2.3-3.7c-0.2-1.3,0.6-2.5,1.9-2.8
	c0.1,0,0.3,0,0.4,0C169.9,59.6,170.4,59.9,170.8,60.4z"/>
<path class="st1" d="M174.6,60.7L174.6,60.7c0-0.2,0.4-0.3,0.7-0.3c-0.6-0.3-1.3-0.3-1.9,0l0,0c0.1-0.2,0.3-0.4,0.5-0.5
	c-0.6,0-1.2,0.2-1.6,0.6l0,0c0.1-0.2,0.2-0.4,0.4-0.5c-1.2,0-2.1,1.5-2.1,1.5c-0.1-0.6-0.7-1-1.3-1.1c-0.7-0.1-2.4,1-1.8,2.3
	c-0.8,1-1.6,2.1-2.2,3.2l0,0c0.8-1.3,1.8-2.3,3-3.2c0.1,0.1,0.8,1.8,2.3,1.8c0.2,0.1,0.9,1.4,2.2,1.3c0,0.6,0.1,1.2,0.3,1.7h0.1l0,0
	c0.4-0.4,0.9-0.7,1.5-0.8c0.1-0.4,0.2-0.7,0.4-1.1c1.1-0.2,1.9-1.2,2-2.3C177.2,62,176,60.5,174.6,60.7z M168.2,62.3
	c-0.2,0-0.3-0.1-0.3-0.3c0-0.2,0.1-0.3,0.3-0.3c0.2,0,0.3,0.1,0.3,0.3c0,0,0,0,0,0C168.5,62.2,168.4,62.3,168.2,62.3z"/>
<path class="st0" d="M186.8,60.4c0.7-0.8,1.6-1.2,2.6-1.2c3.8-0.1,5.8,2.8,5.7,5c0.1,1.5-0.9,2.8-2.3,3.3c0,0.5,0.1,0.9,0.4,1.3
	c0.1,0,0.1,0.1,0.1,0.3c-0.1,0.2-0.1,0.2-0.1,0.2c0,0.1,0,0.1,0,0.2c0,0.2,0,0.4-0.1,0.6c-0.1,0.4,0,0.7,0.1,1.1
	c0,0.1-0.1,0.1-0.1,0c-0.3-0.2-0.4-0.6-0.5-0.9c-0.5,0.2-0.9,0.7-1.2,1.2c0,0.1-0.1,0.1-0.1,0c0-0.5,0.2-1.1,0.6-1.4
	c-0.4-0.1-0.7,0-1.1,0.2c0,0-0.1,0.1,0,0c0.1,0,0.2-0.5,1.2-0.6c0,0,0.2-0.4,0.3-0.6c0-0.5-0.2-0.9-0.5-1.3c-0.4,0-0.9,0.2-1.2,0.4
	c-0.1,0-0.1,0.1-0.1,0.2v0.2c0,0.1-0.1,0.3-0.3,0.3c-0.4,0.1-0.9,0.3-1.3,0.5c-0.3,0.1-0.5,0.3-0.6,0.5c-0.1,0.2-0.3,0.4-0.6,0.5
	c-0.1,0-0.3,0.1-0.4,0.2l-0.3,0.3c-0.2,0.2-0.4,0.4-0.5,0.6c0,0.1,0,0.1,0,0v-0.3c0.1-0.3,0.2-0.6,0.5-0.8c0,0,0,0-0.1,0
	c-0.6,0-1.2,0-1.8,0.2c-0.1,0-0.1,0-0.1,0c0,0,0.3-0.7,1.6-0.8c-0.2-0.2-0.6-0.4-0.9-0.4c-0.1,0-0.1,0,0,0c0.4-0.2,0.9-0.1,1.3,0.2
	c0.1,0,0.5-0.2,0.7-0.2c0.3-0.2,1-0.9,1.3-1.1v-0.3l0,0c-0.3-0.5-0.4-1.1-0.4-1.7c-0.8-0.2-1.5-0.6-2-1.3c-0.9-0.2-1.8-0.8-2.2-1.6
	c-1.4,1.1-2.5,2.4-3.3,4c0,0,0,0-0.1,0c-0.2-0.4-0.3-0.8-0.2-1.2c0.6-1.3,1.3-2.6,2.3-3.7c-0.2-1.3,0.6-2.5,1.9-2.8
	c0.1,0,0.3,0,0.4,0c0.5,0.1,1,0.4,1.4,0.8L186.8,60.4z"/>
<path class="st1" d="M190.6,60.7L190.6,60.7c0.1-0.2,0.4-0.3,0.7-0.3c-0.6-0.3-1.3-0.3-1.9,0l0,0c0.1-0.2,0.3-0.4,0.5-0.5
	c-0.6,0-1.2,0.2-1.6,0.6l0,0c0.1-0.2,0.2-0.4,0.4-0.5c-1.2,0-2.1,1.5-2.1,1.5c-0.1-0.6-0.7-1-1.3-1.1c-0.7-0.1-2.4,1-1.8,2.3
	c-0.8,1-1.6,2.1-2.2,3.2l0,0c0.8-1.2,1.8-2.3,3-3.2c0.1,0.1,0.7,1.8,2.3,1.8c0.5,0.8,1.4,1.2,2.3,1.3c0,0.6,0.1,1.2,0.3,1.7l0,0l0,0
	c0.4-0.4,0.9-0.7,1.5-0.8c0.1-0.4,0.3-0.7,0.4-1.1c1.1-0.2,1.9-1.2,2-2.3C193.2,62,192,60.5,190.6,60.7z M184.2,62.3
	c-0.2,0-0.3-0.1-0.3-0.3s0.1-0.3,0.3-0.3c0.2,0,0.3,0.1,0.3,0.3c0,0,0,0,0,0C184.5,62.2,184.4,62.3,184.2,62.3
	C184.2,62.3,184.2,62.3,184.2,62.3z"/>
<path class="st1" d="M174.1,97.5l-0.4,0.3l0.4,0.2c0.3,0.1,0.4,0.4,0.4,0.7c0,0.4-0.4,0.8-0.8,0.8h-3.3c-0.4,0-0.8-0.4-0.8-0.8
	c0-0.3,0.2-0.6,0.4-0.7l0.4-0.2l-0.4-0.2c-0.8-0.5-1.7-0.8-2.6-0.8c-0.9,0-1.9,0.3-2.6,0.8c-0.9,0.6-2.1,0.9-3.2,0.8
	c-1.7,0-3.3-0.6-4.5-1.7l0,0h-0.9l-0.1,0.1c-0.1,0.1-0.3,0.2-0.5,0.2c-0.3,0-0.6-0.3-0.6-0.6c0-0.3,0.3-0.6,0.6-0.6c0,0,0,0,0,0
	c0.2,0,0.3,0.1,0.4,0.2l0.1,0.1h1v-1.3h-1L156,95c-0.1,0.1-0.3,0.2-0.5,0.2c-0.3,0-0.6-0.3-0.6-0.6c0-0.3,0.3-0.6,0.6-0.6
	c0,0,0,0,0,0c0.2,0,0.4,0.1,0.5,0.2l0.1,0.1h1v-1.3h-1l-0.1,0.1c-0.1,0.1-0.3,0.2-0.5,0.2c-0.3,0-0.6-0.3-0.6-0.6
	c0-0.3,0.3-0.6,0.6-0.6c0,0,0,0,0,0c0.2,0,0.4,0.1,0.5,0.2l0.1,0.1h1v-1.2h-1l-0.1,0.1c-0.1,0.1-0.3,0.2-0.5,0.2
	c-0.3,0-0.6-0.3-0.6-0.6c0-0.3,0.3-0.6,0.6-0.6c0,0,0,0,0,0c0.2,0,0.4,0.1,0.5,0.2l0.1,0.1h1v-1.2h-1l-0.1,0.1
	c-0.1,0.1-0.3,0.2-0.5,0.2c-0.3,0-0.6-0.3-0.6-0.6c0-0.3,0.3-0.6,0.6-0.6c0,0,0,0,0,0c0.2,0,0.4,0.1,0.5,0.2l0.1,0.1h1v-1.2h-1
	L156,88c-0.1,0.1-0.3,0.2-0.5,0.2c-0.3,0-0.6-0.3-0.6-0.6c0-0.3,0.3-0.6,0.6-0.6c0,0,0,0,0,0c0.2,0,0.4,0.1,0.5,0.2l0.1,0.1h1v-1.2
	h-1l-0.1,0.1c-0.1,0.1-0.3,0.2-0.5,0.2c-0.3,0-0.6-0.3-0.6-0.6c0-0.3,0.3-0.6,0.6-0.6c0,0,0,0,0,0c0.2,0,0.4,0.1,0.5,0.2v0.1h0.8
	l0.8-0.4v11.1l0.1,0.2c2,1.4,4.5,1.6,6.7,0.4c2.2-1.2,5.2-1.3,7,1.3h-0.7c-0.1,0-0.3,0.1-0.3,0.2c0,0,0,0,0,0c0,0.1,0.1,0.3,0.2,0.3
	c0,0,0,0,0,0h2.7c0.1,0,0.3-0.1,0.3-0.2c0,0,0,0,0,0c0-0.1-0.1-0.3-0.2-0.3c0,0,0,0,0,0h-0.8c1.8-2.6,4.9-2.4,7-1.3
	c1.9,1,4.1,0.8,6.6-0.4l0.2-0.2V85.2l0.9,0.4h0.8l0.1-0.1c0.1-0.1,0.3-0.2,0.5-0.2c0.3,0,0.6,0.2,0.6,0.6c0,0.3-0.3,0.6-0.6,0.6
	c0,0,0,0,0,0c-0.2,0-0.4-0.1-0.5-0.2l-0.1-0.1h-1v1.2h1l0.1-0.1c0.1-0.1,0.3-0.2,0.5-0.2c0.3,0,0.6,0.3,0.6,0.6
	c0,0.3-0.3,0.6-0.6,0.6c0,0,0,0,0,0c-0.2,0-0.3-0.1-0.5-0.2l-0.1-0.1h-1v1.2h1l0.1-0.1c0.1-0.1,0.3-0.2,0.5-0.2
	c0.3,0,0.6,0.2,0.6,0.6c0,0.3-0.3,0.6-0.6,0.6c0,0,0,0,0,0c-0.2,0-0.4-0.1-0.5-0.2l-0.1-0.1h-1v1.2h1l0.1-0.1
	c0.1-0.1,0.3-0.2,0.5-0.2c0.3,0,0.6,0.2,0.6,0.6c0,0.3-0.3,0.6-0.6,0.6c0,0,0,0,0,0c-0.2,0-0.3-0.1-0.5-0.2l-0.1-0.1h-1v1.2h1
	l0.1-0.1c0.1-0.1,0.3-0.2,0.5-0.2c0.3,0,0.6,0.3,0.6,0.6c0,0.3-0.3,0.6-0.6,0.6c0,0,0,0,0,0c-0.2,0-0.4-0.1-0.5-0.2l-0.1-0.1h-1v1.2
	h1l0.1-0.1c0.1-0.1,0.3-0.2,0.5-0.2c0.3,0,0.6,0.2,0.6,0.6c0,0.3-0.3,0.6-0.6,0.6c0,0,0,0,0,0c-0.2,0-0.3-0.1-0.5-0.2l-0.1-0.1h-1
	v1.2h1l0.1-0.1c0.1-0.1,0.3-0.2,0.5-0.2c0.3,0,0.6,0.3,0.6,0.6c0,0.3-0.3,0.6-0.6,0.6c0,0,0,0,0,0c-0.2,0-0.4-0.1-0.5-0.2l-0.1-0.1
	h-0.8H187c-1.3,1.1-2.9,1.7-4.6,1.7c-1.1,0.1-2.2-0.2-3.2-0.8C177.7,96.4,175.6,96.4,174.1,97.5z"/>
<path class="st1" d="M159,96c1.7,0.9,3.1,1.2,5.6-0.2c2.4-1.2,5.3-0.8,7.3,1.2v0.8c-2-2.6-5.2-2.5-7.5-1.2c-1.9,1-4.2,0.9-6-0.3
	V85.1l0.6-0.3L159,96L159,96z"/>
<path class="st1" d="M159.4,95.6V84.5h0.1c1.8,0.5,3.6,0.3,5.3-0.5c2.4-1,5.1-0.6,7.1,1v11.2c-1.2-1-2.8-1.6-4.4-1.6
	c-1.1,0-2.1,0.2-3.1,0.7C162.1,96.5,160.9,96.4,159.4,95.6z"/>
<path class="st1" d="M179.6,95.8c2.5,1.3,3.9,1.1,5.6,0.2l0.2-0.1V84.8l0.6,0.3v11.2c-2.3,1.1-4.3,1.2-6,0.3
	c-2.3-1.2-5.5-1.4-7.5,1.2v-0.8C174.3,95.1,177.2,94.6,179.6,95.8z"/>
<path class="st1" d="M172.3,96.2V84.9c2-1.6,4.7-2,7.1-1c1.7,0.8,3.5,1,5.3,0.5l0,0v11.2c-1.5,0.8-2.8,1-5-0.2
	C177.3,94.2,174.4,94.5,172.3,96.2z"/>
<polygon class="st1" points="184.9,82.5 181.9,80.2 178.9,82.5 180.1,78.9 176.9,76.6 180.8,76.6 181.9,72.9 183.1,76.6 186.9,76.6 
	183.8,78.9 "/>
<polygon class="st1" points="165.3,82.5 162.2,80.2 159.2,82.5 160.4,78.9 157.3,76.6 161.1,76.6 162.2,73 163.4,76.6 167.3,76.6 
	164.1,78.9 "/>
<polygon class="st1" points="169.1,110.9 170.2,107.3 167.1,105 170.9,105 172.1,101.3 173.2,105 177.1,105 173.9,107.3 
	175.1,110.9 172.1,108.7 "/>
<rect x="72" y="16" class="st2" width="200" height="200"/>
</svg>
